PathFileType	4	(X/Y/Z)	Kaydara																																																																																																																									
DataRate	CameraRate	NumFrames	NumMarkers	Units	OrigDataRate	OrigDataStartFrame	OrigNumFrames																																																																																																																					
30	30	7	41	mm	30	39	152																																																																																																																					
Frame#	Time	EMLA_LFHD			EMLA_RFHD			EMLA_LBHD			EMLA_RBHD			EMLA_LFTShould			EMLA_RFTShould			EMLA_LRRShould			EMLA_RRRShould			EMLA_T10			EMLA_STRN			EMLA_TRUN			EMLA_LSHO			EMLA_LUPA			EMLA_LELB			EMLA_LFRM			EMLA_LWRA			EMLA_LWRB			EMLA_LFIN			EMLA_RSHO			EMLA_RUPA			EMLA_RELB			EMLA_RFRM			EMLA_RWRA			EMLA_RWRB			EMLA_RFIN			EMLA_LFWT			EMLA_RFWT			EMLA_LBWT			EMLA_RBWT			EMLA_LTHI			EMLA_LKNE			EMLA_LSHN			EMLA_LANK			EMLA_LHEE			EMLA_LTOE			EMLA_RTHI			EMLA_RKNE			EMLA_RSHN			EMLA_RANK			EMLA_RHEE			EMLA_RTOE		
		X1	Y1	Z1	X2	Y2	Z2	X3	Y3	Z3	X4	Y4	Z4	X5	Y5	Z5	X6	Y6	Z6	X7	Y7	Z7	X8	Y8	Z8	X9	Y9	Z9	X10	Y10	Z10	X11	Y11	Z11	X12	Y12	Z12	X13	Y13	Z13	X14	Y14	Z14	X15	Y15	Z15	X16	Y16	Z16	X17	Y17	Z17	X18	Y18	Z18	X19	Y19	Z19	X20	Y20	Z20	X21	Y21	Z21	X22	Y22	Z22	X23	Y23	Z23	X24	Y24	Z24	X25	Y25	Z25	X26	Y26	Z26	X27	Y27	Z27	X28	Y28	Z28	X29	Y29	Z29	X30	Y30	Z30	X31	Y31	Z31	X32	Y32	Z32	X33	Y33	Z33	X34	Y34	Z34	X35	Y35	Z35	X36	Y36	Z36	X37	Y37	Z37	X38	Y38	Z38	X39	Y39	Z39	X40	Y40	Z40	X41	Y41	Z41
																																																																																																																												
39	1.277	273.72896	1642.48276	-1949.68399	101.84542	1645.87036	-1952.13745	290.41582	1610.79376	-2097.82867	95.25841	1615.75958	-2103.68835	273.60762	1400.58853	-1990.6485	123.32268	1389.29138	-1986.08734	261.96285	1450.52643	-2139.14383	103.79234	1439.78378	-2131.3855	195.87358	1274.86908	-2183.48114	199.21267	1329.62936	-1951.07224	195.28299	1226.82167	-1929.70413	396.86993	1423.508	-2047.39166	452.99629	1240.64758	-2060.65018	470.92175	1097.60307	-2059.65851	469.52091	961.1377	-2045.85327	386.78135	824.39598	-1956.12625	441.58623	800.23788	-2015.81451	436.97189	771.15906	-1952.28714	-2.35647	1417.08786	-2043.29712	-58.55165	1221.68434	-2035.83145	-75.05913	1077.98248	-2049.14963	-75.12788	975.44884	-2048.05466	2.60981	824.04663	-1939.9678	-47.62822	799.59961	-2004.6225	-54.45185	770.95627	-1946.35452	298.8459	989.44588	-1955.34271	62.12358	978.29117	-1969.58939	277.63676	1015.24406	-2153.92685	102.46078	1016.68724	-2149.34631	322.02568	730.28801	-2150.65048	326.68922	524.06765	-2116.42197	299.68218	341.94386	-2110.50888	300.61432	166.66859	-2186.86813	234.6356	86.51439	-2246.51627	269.44813	74.54424	-2049.22104	71.02362	713.21907	-2165.23239	35.61464	512.64095	-2112.108	75.8085	289.67756	-2109.90753	40.03255	131.38879	-2194.61136	97.23001	78.66429	-2246.67084	56.51512	71.96493	-2047.04803
40	1.31	273.43746	1642.45132	-1949.71405	101.55603	1645.63553	-1952.04788	290.14297	1611.0434	-2097.81769	95.00484	1615.80139	-2103.7027	273.68093	1400.64835	-1990.98999	122.98773	1389.16718	-1986.53198	261.68234	1450.52338	-2139.48074	103.50913	1439.77753	-2131.61911	195.55645	1274.86649	-2183.76175	198.85834	1329.76898	-1951.50238	194.97526	1226.77895	-1929.73633	396.61572	1423.43353	-2047.74765	452.74712	1240.59631	-2061.02905	470.73521	1097.55653	-2060.35446	469.44687	961.07895	-2046.71326	386.91544	824.11179	-1957.19406	441.67282	800.12405	-2016.86935	437.09343	770.95291	-1953.27911	-2.60125	1417.11075	-2043.43475	-58.80792	1221.79176	-2035.98038	-75.35562	1077.99316	-2049.16962	-75.38368	975.48492	-2048.06122	2.41118	824.06898	-1940.05325	-47.79839	799.58969	-2004.64111	-54.54086	770.97656	-1946.30722	298.74353	989.46602	-1955.64041	62.06151	978.42529	-1969.69269	277.43542	1015.2623	-2154.27246	102.25107	1016.6655	-2149.56955	321.86039	730.28015	-2151.01837	326.52775	524.0443	-2116.81107	299.56451	341.96747	-2110.75562	300.57169	166.6441	-2186.97479	234.8893	86.05232	-2246.45874	269.39793	74.52629	-2049.25201	70.88577	713.25012	-2165.66376	35.4364	512.63184	-2112.40021	75.69585	289.70745	-2110.05341	39.93247	131.34752	-2194.65668	97.10692	78.59066	-2246.73218	56.49371	71.97001	-2047.04697
41	1.343	273.1657	1642.27646	-1949.62585	101.32548	1645.45914	-1951.90674	289.94528	1611.13373	-2097.82501	94.77011	1615.87646	-2103.62183	273.49907	1400.53543	-1991.43173	122.97109	1389.15771	-1986.78268	261.42513	1450.49667	-2139.75357	103.22683	1439.77005	-2131.84814	195.20819	1274.84032	-2184.02786	198.75092	1329.7226	-1951.84143	194.97736	1226.69823	-1930.11368	396.42727	1423.24966	-2048.09616	452.58732	1240.47829	-2061.88507	470.52486	1097.43095	-2061.07056	469.38683	960.97588	-2047.59476	387.12185	823.83606	-1958.11905	441.847	799.96353	-2017.94205	437.37244	770.69252	-1954.41467	-2.8005	1417.07397	-2043.59055	-59.00837	1221.7218	-2036.01151	-75.71259	1078.15269	-2049.33762	-75.58079	975.3756	-2047.98569	2.33728	824.05586	-1939.99405	-47.80934	799.487	-2004.49112	-54.58389	770.98846	-1946.19858	298.58973	989.40872	-1956.00052	61.92602	978.27972	-1969.80591	277.19837	1015.29808	-2154.59229	101.95905	1016.63025	-2149.74228	321.73405	730.2639	-2151.28555	326.4764	524.02637	-2116.96686	299.5261	341.97281	-2110.8609	300.57697	166.57768	-2186.98624	234.86393	86.02183	-2246.49338	269.39926	74.52503	-2049.25674	70.39843	713.35815	-2166.0408	35.33291	512.59075	-2112.55676	75.69145	289.65727	-2110.18799	39.85943	131.2406	-2194.71283	97.05924	78.49561	-2246.77673	56.48696	71.96523	-2047.05292
42	1.377	273.2077	1642.1254	-1949.60983	101.16004	1645.38239	-1951.77505	289.79252	1611.23108	-2097.87582	94.5647	1616.02936	-2103.51929	273.14096	1400.44647	-1991.81107	122.83528	1389.09729	-1986.8866	261.1401	1450.50613	-2139.99481	102.9312	1439.75327	-2131.94794	194.87112	1274.86015	-2184.2836	199.13103	1329.44794	-1951.85791	195.00286	1226.63544	-1930.45319	396.29147	1423.2312	-2048.69873	452.33665	1240.39757	-2062.435	470.35007	1097.3793	-2061.85715	469.3652	960.98511	-2048.54507	387.41772	823.5585	-1959.11346	442.10175	799.8642	-2019.04205	437.67628	770.47073	-1955.44876	-2.9616	1416.96762	-2043.58963	-59.09144	1221.62621	-2035.96954	-75.75223	1077.97951	-2049.23828	-75.63179	975.29587	-2047.86087	2.41501	824.06639	-1939.8085	-47.78779	799.46503	-2004.29871	-54.52544	770.97893	-1945.96527	298.58641	989.49356	-1956.29578	61.87703	978.21175	-1969.82376	276.9079	1015.23964	-2154.9295	101.68237	1016.54373	-2149.86099	321.73389	730.22415	-2151.46332	326.48968	524.0424	-2117.03522	299.50819	341.91578	-2110.85114	300.63007	166.54825	-2186.97342	234.82489	86.11274	-2246.5593	269.39861	74.53275	-2049.26056	70.0781	713.42331	-2166.39862	35.29237	512.56798	-2112.67502	75.68831	289.63282	-2110.29022	39.81246	131.1895	-2194.72443	96.96566	78.41152	-2246.8071	56.50949	71.98291	-2047.07855
43	1.41	273.13635	1641.91803	-1949.52545	101.14331	1645.29572	-1951.55823	289.62677	1611.353	-2097.84714	94.43003	1616.1702	-2103.33054	273.00913	1400.33051	-1992.03552	122.76272	1389.04922	-1986.98074	260.89432	1450.5632	-2140.2536	102.72805	1439.76578	-2131.96411	194.60445	1274.88487	-2184.46091	199.06445	1329.6843	-1952.19391	194.8251	1226.52283	-1930.29449	396.15093	1423.24402	-2049.01947	452.25685	1240.42274	-2063.11615	470.2919	1097.45193	-2062.62741	469.46079	961.0759	-2049.50394	387.72331	823.4726	-1959.97543	442.30289	799.83749	-2020.12054	437.97215	770.39505	-1956.53412	-3.09143	1416.93512	-2043.41095	-59.13633	1221.58974	-2035.87677	-75.91	1078.11264	-2049.24469	-75.62625	975.25978	-2047.7182	2.72542	824.12003	-1939.59396	-47.57107	799.37309	-2004.0921	-54.26706	770.97626	-1945.73151	298.22332	989.7493	-1956.3678	62.07847	978.37173	-1969.82269	276.68371	1015.17464	-2155.21896	101.52553	1016.43654	-2149.98993	321.59977	730.20584	-2151.66412	326.41171	524.01306	-2117.14645	299.4516	341.92341	-2110.93094	300.57882	166.54705	-2187.01508	234.87913	85.88531	-2246.50803	269.35358	74.53867	-2049.25079	70.07538	713.34221	-2166.52664	35.26907	512.51762	-2112.82349	75.6448	289.62133	-2110.4068	39.74265	131.13811	-2194.78027	96.91289	78.34342	-2246.84738	56.50559	71.99735	-2047.10052
44	1.443	273.15907	1641.88751	-1949.43832	101.18139	1645.28381	-1951.29517	289.55803	1611.47095	-2097.89307	94.35493	1616.34415	-2103.14011	273.10286	1400.41031	-1992.2226	122.93665	1389.08188	-1986.87042	260.70684	1450.61005	-2140.51422	102.53601	1439.79172	-2131.91238	194.3705	1274.91127	-2184.57993	198.8282	1329.63486	-1952.38129	195.14774	1226.63689	-1930.62119	396.11298	1423.32993	-2049.48792	452.28874	1240.54443	-2063.73672	470.38437	1097.55875	-2063.40683	469.58778	961.14601	-2050.37445	387.94807	823.40157	-1960.98923	442.50828	799.87984	-2021.07605	438.16189	770.31372	-1957.43515	-3.10059	1416.96716	-2043.2045	-59.13622	1221.60393	-2035.53375	-75.90662	1078.12935	-2048.93448	-75.58416	975.22636	-2047.3735	3.09127	824.09515	-1939.4989	-47.20889	799.2585	-2003.80936	-53.8319	770.9259	-1945.51865	298.14655	989.69414	-1956.54022	61.95339	978.26431	-1969.94339	276.61388	1015.21973	-2155.36484	101.46895	1016.41663	-2150.05981	321.37558	730.24307	-2151.92245	326.31504	524.08352	-2117.43088	299.36563	341.93768	-2111.0675	300.5197	166.56027	-2187.03812	234.75616	86.06647	-2246.55869	269.34076	74.55594	-2049.24591	70.02586	713.30803	-2166.51337	35.21679	512.50439	-2112.76627	75.6405	289.66145	-2110.34409	39.82771	131.18431	-2194.71878	96.9586	78.42407	-2246.82297	56.51681	71.97567	-2047.08221
45	1.477	273.1913	1641.84647	-1949.35806	101.17386	1645.24124	-1951.06445	289.52427	1611.66779	-2097.8598	94.29994	1616.50604	-2102.94434	273.22956	1400.51544	-1992.51663	123.02093	1389.17511	-1986.92932	260.61939	1450.68588	-2140.61081	102.45217	1439.85931	-2131.84418	194.21108	1274.98955	-2184.62753	199.21732	1329.6582	-1952.35245	195.13781	1226.7144	-1930.46478	396.13903	1423.40607	-2049.88388	452.3621	1240.65933	-2064.43375	470.58411	1097.73468	-2064.19815	469.76749	961.23253	-2051.18149	388.24352	823.38646	-1961.80588	442.7343	799.93423	-2021.94901	438.51124	770.33943	-1958.36609	-3.05522	1416.96777	-2042.96097	-59.09739	1221.71951	-2035.01984	-75.8153	1078.12416	-2048.43506	-75.45888	975.2713	-2046.96152	3.608	824.07402	-1939.39102	-46.84562	799.18098	-2003.45581	-53.38119	770.92949	-1945.18936	298.1908	989.72534	-1956.75278	62.10124	978.45268	-1969.83658	276.55701	1015.29404	-2155.49332	101.41658	1016.43356	-2150.06882	321.29021	730.27756	-2152.07718	326.31676	524.10164	-2117.49115	299.42652	342.00008	-2111.11343	300.52853	166.55386	-2187.03781	234.83829	85.92065	-2246.48788	269.36056	74.55132	-2049.25095	69.93018	713.29308	-2166.41464	35.18449	512.52384	-2112.59171	75.67674	289.64174	-2110.21149	39.8178	131.24025	-2194.64844	96.95327	78.49099	-2246.81519	56.55387	71.96881	-2047.04834
